<svg xmlns="http://www.w3.org/2000/svg" viewBox="0 0 24 24" fill="none">
  <rect width="24" height="24" rx="5" fill="#0c1222"/>
  <path d="M12 4c-1.5 0-2.5.8-2.5 2 0 .5.2 1 .5 1.3C8.6 7.9 7.5 9.3 7.5 11v1c0 1 .5 1.8 1.2 2.3.1.1.2.2.3.3v3.7c0 .8.7 1.5 1.5 1.5h4.2c.8 0 1.5-.7 1.5-1.5v-3.7c.1-.1.2-.2.3-.3.7-.5 1.2-1.3 1.2-2.3v-1c0-1.7-1.1-3.1-2-3.7.3-.3.5-.8.5-1.3 0-1.2-1-2-2.5-2z" fill="#3b82f6" opacity="0.85"/>
  <circle cx="10" cy="11.5" r="0.7" fill="#0c1222"/>
  <circle cx="14" cy="11.5" r="0.7" fill="#0c1222"/>
</svg>
